<svg width="500" height="500" version="1.1" xmlns="http://www.w3.org/2000/svg" desc="Created with imagetracer.js version 1.2.6" ><path fill="rgb(18,4,2)" stroke="rgb(18,4,2)" stroke-width="1" opacity="0.03137254901960784" d="M 0 0 L 73 0.5 L 60.5 3 L 44.5 10 Q 29.6 18.6 19 31.5 L 6 52.5 L 0.5 73 L 0 0 Z " /><path fill="rgb(18,4,2)" stroke="rgb(18,4,2)" stroke-width="1" opacity="0.03137254901960784" d="M 427.5 0 L 500 0 L 500 72.5 L 499 72.5 L 499 67.5 L 497 60.5 L 490 44.5 Q 481.2 29.8 468.5 19 L 451.5 8 L 439.5 3 L 427.5 1 L 427.5 0 Z " /><path fill="rgb(18,4,2)" stroke="rgb(18,4,2)" stroke-width="1" opacity="0.03137254901960784" d="M 0.5 415 Q 2.7 428.8 8 439.5 Q 16.6 455.4 29.5 467 Q 40.5 477 55.5 483 L 75.5 488 L 424.5 488 L 444.5 483 L 458.5 476 L 479 458.5 L 492 439.5 L 497 426.5 L 499.5 415 L 500 500 L 0.5 500 L 0 499.5 L 0.5 415 Z " /><path fill="rgb(253,222,220)" stroke="rgb(253,222,220)" stroke-width="1" opacity="1" d="M 131.5 84 L 147 84.5 L 131.5 85 L 131.5 84 Z " /><path fill="rgb(253,222,220)" stroke="rgb(253,222,220)" stroke-width="1" opacity="1" d="M 352.5 84 L 368 84.5 L 352.5 85 L 352.5 84 Z " /><path fill="rgb(253,222,220)" stroke="rgb(253,222,220)" stroke-width="1" opacity="1" d="M 119.5 85 L 123 85.5 L 119.5 86 L 119.5 85 Z " /><path fill="rgb(253,222,220)" stroke="rgb(253,222,220)" stroke-width="1" opacity="1" d="M 155.5 85 L 160 85.5 L 155.5 86 L 155.5 85 Z " /><path fill="rgb(253,222,220)" stroke="rgb(253,222,220)" stroke-width="1" opacity="1" d="M 340.5 85 L 345 85.5 L 340.5 86 L 340.5 85 Z " /><path fill="rgb(253,222,220)" stroke="rgb(253,222,220)" stroke-width="1" opacity="1" d="M 376.5 85 L 381 85.5 L 376.5 86 L 376.5 85 Z " /><path fill="rgb(253,222,220)" stroke="rgb(253,222,220)" stroke-width="1" opacity="1" d="M 163.5 86 L 167 86.5 L 163.5 87 L 163.5 86 Z " /><path fill="rgb(253,222,220)" stroke="rgb(253,222,220)" stroke-width="1" opacity="1" d="M 333.5 86 L 336 86.5 L 333.5 87 L 333.5 86 Z " /><path fill="rgb(253,222,220)" stroke="rgb(253,222,220)" stroke-width="1" opacity="1" d="M 383.5 86 L 391 91.5 L 392 95.5 L 391 95.5 Q 390.6 90 386.5 88 Q 382.8 87.8 383.5 86 Z " /><path fill="rgb(253,222,220)" stroke="rgb(253,222,220)" stroke-width="1" opacity="1" d="M 113.5 87 L 112.5 89 L 110 90.5 L 108.5 93 L 109 91.5 L 111.5 88 L 113.5 87 Z " /><path fill="rgb(253,222,220)" stroke="rgb(253,222,220)" stroke-width="1" opacity="1" d="M 168.5 87 L 178 88.5 L 174.5 89 Q 173.2 86.8 168.5 88 L 168.5 87 Z " /><path fill="rgb(253,222,220)" stroke="rgb(253,222,220)" stroke-width="1" opacity="1" d="M 326.5 87 L 331 87.5 L 321.5 89 L 321.5 88 L 326.5 87 Z " /><path fill="rgb(253,222,220)" stroke="rgb(253,222,220)" stroke-width="1" opacity="1" d="M 180.5 89 L 186 90.5 L 183.5 91 L 180.5 90 L 180.5 89 Z " /><path fill="rgb(253,222,220)" stroke="rgb(253,222,220)" stroke-width="1" opacity="1" d="M 317.5 89 L 320 89.5 L 317.5 90 L 317.5 89 Z " /><path fill="rgb(253,222,220)" stroke="rgb(253,222,220)" stroke-width="1" opacity="1" d="M 313.5 90 L 316 90.5 L 310.5 92 L 310.5 91 L 313.5 90 Z " /><path fill="rgb(253,222,220)" stroke="rgb(253,222,220)" stroke-width="1" opacity="1" d="M 187.5 91 L 190 91.5 L 187.5 92 L 187.5 91 Z " /><path fill="rgb(253,222,220)" stroke="rgb(253,222,220)" stroke-width="1" opacity="1" d="M 107.5 94 L 108 123.5 L 107 123.5 L 107.5 94 Z " /><path fill="rgb(253,222,220)" stroke="rgb(253,222,220)" stroke-width="1" opacity="1" d="M 197.5 94 L 201 95.5 L 199.5 96 L 197.5 94 Z " /><path fill="rgb(253,222,220)" stroke="rgb(253,222,220)" stroke-width="1" opacity="1" d="M 301.5 94 L 303 94.5 L 298.5 96 L 298.5 95 L 301.5 94 Z " /><path fill="rgb(253,222,220)" stroke="rgb(253,222,220)" stroke-width="1" opacity="1" d="M 202.5 96 L 208 98.5 L 206.5 99 L 202.5 97 L 202.5 96 Z " /><path fill="rgb(253,222,220)" stroke="rgb(253,222,220)" stroke-width="1" opacity="1" d="M 293.5 97 L 295 97.5 L 283.5 103 L 283.5 102 L 293.5 97 Z " /><path fill="rgb(253,222,220)" stroke="rgb(253,222,220)" stroke-width="1" opacity="1" d="M 213.5 101 L 216 102.5 L 214.5 103 L 213.5 101 Z " /><path fill="rgb(253,222,220)" stroke="rgb(253,222,220)" stroke-width="1" opacity="1" d="M 217.5 103 L 221 105.5 L 219.5 105 L 217.5 103 Z " /><path fill="rgb(253,222,220)" stroke="rgb(253,222,220)" stroke-width="1" opacity="1" d="M 281.5 103 L 279.5 106 L 277.5 107 L 278.5 105 L 281.5 103 Z " /><path fill="rgb(253,222,220)" stroke="rgb(253,222,220)" stroke-width="1" opacity="1" d="M 222.5 106 L 223.5 108 L 222.5 106 Z " /><path fill="rgb(253,222,220)" stroke="rgb(253,222,220)" stroke-width="1" opacity="1" d="M 275.5 107 L 274.5 109 L 270.5 112 L 273.5 108 L 275.5 107 Z " /><path fill="rgb(253,222,220)" stroke="rgb(253,222,220)" stroke-width="1" opacity="1" d="M 131.5 108 L 154.5 108 L 161 109.5 L 155.5 110 L 154.5 109 L 131 109 L 131 294.5 L 132 295.5 L 130 294.5 L 130 109.5 L 131.5 108 Z " /><path fill="rgb(253,222,220)" stroke="rgb(253,222,220)" stroke-width="1" opacity="1" d="M 225.5 108 L 231 112.5 L 227.5 110 L 225.5 108 Z " /><path fill="rgb(253,222,220)" stroke="rgb(253,222,220)" stroke-width="1" opacity="1" d="M 345.5 108 L 368.5 108 L 369 108.5 L 369 295.5 L 368 295.5 L 368 109.5 L 367.5 109 L 345.5 109 Q 344.3 111.2 339.5 110 L 339.5 109 Q 344.3 110.3 345.5 108 Z " /><path fill="rgb(253,222,220)" stroke="rgb(253,222,220)" stroke-width="1" opacity="1" d="M 163.5 110 L 167 110.5 L 163.5 111 L 163.5 110 Z " /><path fill="rgb(253,222,220)" stroke="rgb(253,222,220)" stroke-width="1" opacity="1" d="M 333.5 110 L 337 110.5 L 333.5 111 L 333.5 110 Z " /><path fill="rgb(253,222,220)" stroke="rgb(253,222,220)" stroke-width="1" opacity="1" d="M 169.5 111 L 177 112.5 L 174.5 113 L 169.5 112 L 169.5 111 Z " /><path fill="rgb(253,222,220)" stroke="rgb(253,222,220)" stroke-width="1" opacity="1" d="M 326.5 111 L 331 111.5 L 323.5 113 L 323.5 112 L 326.5 111 Z " /><path fill="rgb(253,222,220)" stroke="rgb(253,222,220)" stroke-width="1" opacity="1" d="M 268.5 112 L 266.5 115 L 268.5 112 Z " /><path fill="rgb(253,222,220)" stroke="rgb(253,222,220)" stroke-width="1" opacity="1" d="M 232.5 113 L 235.5 117 L 232.5 113 Z " /><path fill="rgb(253,222,220)" stroke="rgb(253,222,220)" stroke-width="1" opacity="1" d="M 185.5 115 L 195 118.5 L 193.5 119 L 185.5 116 L 185.5 115 Z " /><path fill="rgb(253,222,220)" stroke="rgb(253,222,220)" stroke-width="1" opacity="1" d="M 264.5 115 L 252.5 128 L 264.5 115 Z " /><path fill="rgb(253,222,220)" stroke="rgb(253,222,220)" stroke-width="1" opacity="1" d="M 312.5 115 L 315 115.5 L 307.5 118 L 307.5 117 L 312.5 115 Z " /><path fill="rgb(253,222,220)" stroke="rgb(253,222,220)" stroke-width="1" opacity="1" d="M 237.5 118 L 245 124.5 L 249.5 130 L 251.5 129 L 250.5 131 L 244 125.5 L 239.5 120 L 237.5 118 Z " /><path fill="rgb(253,222,220)" stroke="rgb(253,222,220)" stroke-width="1" opacity="1" d="M 304.5 118 L 306 118.5 L 293.5 125 L 294.5 123 L 304.5 118 Z " /><path fill="rgb(253,222,220)" stroke="rgb(253,222,220)" stroke-width="1" opacity="1" d="M 196.5 119 L 201 121.5 L 199.5 121 Q 195.8 120.8 196.5 119 Z " /><path fill="rgb(253,222,220)" stroke="rgb(253,222,220)" stroke-width="1" opacity="1" d="M 202.5 122 L 210 126.5 L 208.5 126 L 202.5 123 L 202.5 122 Z " /><path fill="rgb(253,222,220)" stroke="rgb(253,222,220)" stroke-width="1" opacity="1" d="M 419.5 124 L 422 124.5 L 419.5 125 L 419.5 124 Z " /><path fill="rgb(253,222,220)" stroke="rgb(253,222,220)" stroke-width="1" opacity="1" d="M 291.5 125 L 290.5 127 L 288.5 128 L 289.5 126 L 291.5 125 Z " /><path fill="rgb(253,222,220)" stroke="rgb(253,222,220)" stroke-width="1" opacity="1" d="M 423.5 125 L 427.5 130 L 423.5 125 Z " /><path fill="rgb(253,222,220)" stroke="rgb(253,222,220)" stroke-width="1" opacity="1" d="M 74.5 126 L 72.5 129 L 74.5 126 Z " /><path fill="rgb(253,222,220)" stroke="rgb(253,222,220)" stroke-width="1" opacity="1" d="M 211.5 127 L 212.5 129 L 211.5 127 Z " /><path fill="rgb(253,222,220)" stroke="rgb(253,222,220)" stroke-width="1" opacity="1" d="M 286.5 128 L 284.5 131 L 286.5 128 Z " /><path fill="rgb(253,222,220)" stroke="rgb(253,222,220)" stroke-width="1" opacity="1" d="M 214.5 129 L 232 145.5 L 234 148.5 L 231 146.5 L 218.5 133 L 214.5 129 Z " /><path fill="rgb(253,222,220)" stroke="rgb(253,222,220)" stroke-width="1" opacity="1" d="M 282.5 131 L 279.5 135 L 282.5 131 Z " /><path fill="rgb(253,222,220)" stroke="rgb(253,222,220)" stroke-width="1" opacity="1" d="M 70.5 132 L 71 134.5 L 70 134.5 L 70.5 132 Z " /><path fill="rgb(253,222,220)" stroke="rgb(253,222,220)" stroke-width="1" opacity="1" d="M 429.5 134 L 430 364.5 L 429 364.5 L 429.5 134 Z " /><path fill="rgb(253,222,220)" stroke="rgb(253,222,220)" stroke-width="1" opacity="1" d="M 276.5 136 L 272.5 141 L 276.5 136 Z " /><path fill="rgb(253,222,220)" stroke="rgb(253,222,220)" stroke-width="1" opacity="1" d="M 270.5 143 L 267 147.5 L 265.5 150 L 266 148.5 L 270.5 143 Z " /><path fill="rgb(253,222,220)" stroke="rgb(253,222,220)" stroke-width="1" opacity="1" d="M 94.5 147 L 106.5 147 L 108 148.5 L 107.5 312 L 107 148 L 94.5 148 L 94 148.5 L 94 347 L 96 347.5 L 93 348 L 93 148.5 L 94.5 147 Z " /><path fill="rgb(253,222,220)" stroke="rgb(253,222,220)" stroke-width="1" opacity="1" d="M 392 147 L 405.5 147 L 406 148.5 L 404.5 148 L 393.5 148 L 392.5 149 L 392 147 Z " /><path fill="rgb(253,222,220)" stroke="rgb(253,222,220)" stroke-width="1" opacity="1" d="M 234.5 150 L 235.5 152 L 234.5 150 Z " /><path fill="rgb(253,222,220)" stroke="rgb(253,222,220)" stroke-width="1" opacity="1" d="M 264.5 151 L 263 153.5 L 262 155.5 L 262 327.5 L 263.5 327 L 268.5 323 L 264.5 328 L 261 329 L 261 155.5 L 264.5 151 Z " /><path fill="rgb(253,222,220)" stroke="rgb(253,222,220)" stroke-width="1" opacity="1" d="M 236.5 153 L 237.5 155 L 236.5 153 Z " /><path fill="rgb(253,222,220)" stroke="rgb(253,222,220)" stroke-width="1" opacity="1" d="M 136.5 295 L 141 295.5 L 136.5 296 L 136.5 295 Z " /><path fill="rgb(253,222,220)" stroke="rgb(253,222,220)" stroke-width="1" opacity="1" d="M 358.5 295 L 364 295.5 L 358.5 296 L 358.5 295 Z " /><path fill="rgb(253,222,220)" stroke="rgb(253,222,220)" stroke-width="1" opacity="1" d="M 147.5 296 L 158 296.5 L 147.5 297 L 147.5 296 Z " /><path fill="rgb(253,222,220)" stroke="rgb(253,222,220)" stroke-width="1" opacity="1" d="M 342.5 296 L 349 296.5 L 342.5 297 L 342.5 296 Z " /><path fill="rgb(253,222,220)" stroke="rgb(253,222,220)" stroke-width="1" opacity="1" d="M 161.5 297 L 166 297.5 L 161.5 298 L 161.5 297 Z " /><path fill="rgb(253,222,220)" stroke="rgb(253,222,220)" stroke-width="1" opacity="1" d="M 334.5 297 L 338 297.5 L 334.5 298 L 334.5 297 Z " /><path fill="rgb(253,222,220)" stroke="rgb(253,222,220)" stroke-width="1" opacity="1" d="M 167.5 298 L 173 298.5 L 167.5 299 L 167.5 298 Z " /><path fill="rgb(253,222,220)" stroke="rgb(253,222,220)" stroke-width="1" opacity="1" d="M 327.5 298 L 333 298.5 L 327.5 299 L 327.5 298 Z " /><path fill="rgb(253,222,220)" stroke="rgb(253,222,220)" stroke-width="1" opacity="1" d="M 179.5 300 L 186 301.5 L 182.5 302 L 179.5 301 L 179.5 300 Z " /><path fill="rgb(253,222,220)" stroke="rgb(253,222,220)" stroke-width="1" opacity="1" d="M 317.5 300 L 321 300.5 L 314.5 302 L 314.5 301 L 317.5 300 Z " /><path fill="rgb(253,222,220)" stroke="rgb(253,222,220)" stroke-width="1" opacity="1" d="M 187.5 302 L 190 302.5 L 187.5 303 L 187.5 302 Z " /><path fill="rgb(253,222,220)" stroke="rgb(253,222,220)" stroke-width="1" opacity="1" d="M 310.5 302 L 313 302.5 L 310.5 303 L 310.5 302 Z " /><path fill="rgb(253,222,220)" stroke="rgb(253,222,220)" stroke-width="1" opacity="1" d="M 191.5 303 L 195 304.5 L 193.5 305 L 191.5 303 Z " /><path fill="rgb(253,222,220)" stroke="rgb(253,222,220)" stroke-width="1" opacity="1" d="M 304.5 304 L 306 304.5 L 301.5 306 L 301.5 305 L 304.5 304 Z " /><path fill="rgb(253,222,220)" stroke="rgb(253,222,220)" stroke-width="1" opacity="1" d="M 296.5 307 L 298 307.5 L 294.5 309 L 294.5 308 L 296.5 307 Z " /><path fill="rgb(253,222,220)" stroke="rgb(253,222,220)" stroke-width="1" opacity="1" d="M 204.5 308 L 208 309.5 L 206.5 310 L 204.5 308 Z " /><path fill="rgb(253,222,220)" stroke="rgb(253,222,220)" stroke-width="1" opacity="1" d="M 291.5 309 L 293 309.5 L 277.5 318 L 278.5 316 L 291.5 309 Z " /><path fill="rgb(253,222,220)" stroke="rgb(253,222,220)" stroke-width="1" opacity="1" d="M 391.5 310 L 392 313.5 L 390 314.5 L 391.5 310 Z " /><path fill="rgb(253,222,220)" stroke="rgb(253,222,220)" stroke-width="1" opacity="1" d="M 211.5 311 L 214 312.5 L 212.5 313 L 211.5 311 Z " /><path fill="rgb(253,222,220)" stroke="rgb(253,222,220)" stroke-width="1" opacity="1" d="M 215.5 313 L 221 316.5 L 219.5 316 Q 215.5 315.5 215.5 313 Z " /><path fill="rgb(253,222,220)" stroke="rgb(253,222,220)" stroke-width="1" opacity="1" d="M 109.5 315 L 110.5 317 L 109.5 315 Z " /><path fill="rgb(253,222,220)" stroke="rgb(253,222,220)" stroke-width="1" opacity="1" d="M 389.5 316 L 387.5 319 Q 383.8 322.3 375.5 321 L 375.5 320 Q 386.1 321.6 389.5 316 Z " /><path fill="rgb(253,222,220)" stroke="rgb(253,222,220)" stroke-width="1" opacity="1" d="M 222.5 317 L 228 321.5 L 225.5 320 L 222.5 317 Z " /><path fill="rgb(253,222,220)" stroke="rgb(253,222,220)" stroke-width="1" opacity="1" d="M 112.5 318 L 115 319.5 L 113.5 320 L 112.5 318 Z " /><path fill="rgb(253,222,220)" stroke="rgb(253,222,220)" stroke-width="1" opacity="1" d="M 275.5 318 L 274.5 320 L 275.5 318 Z " /><path fill="rgb(253,222,220)" stroke="rgb(253,222,220)" stroke-width="1" opacity="1" d="M 127.5 319 L 151 319.5 L 127.5 320 L 127.5 319 Z " /><path fill="rgb(253,222,220)" stroke="rgb(253,222,220)" stroke-width="1" opacity="1" d="M 349.5 319 L 373 319.5 L 349.5 320 L 349.5 319 Z " /><path fill="rgb(253,222,220)" stroke="rgb(253,222,220)" stroke-width="1" opacity="1" d="M 116.5 320 L 125 320.5 L 116.5 321 L 116.5 320 Z " /><path fill="rgb(253,222,220)" stroke="rgb(253,222,220)" stroke-width="1" opacity="1" d="M 153.5 320 L 159 320.5 L 153.5 321 L 153.5 320 Z " /><path fill="rgb(253,222,220)" stroke="rgb(253,222,220)" stroke-width="1" opacity="1" d="M 272.5 320 L 270.5 323 L 272.5 320 Z " /><path fill="rgb(253,222,220)" stroke="rgb(253,222,220)" stroke-width="1" opacity="1" d="M 341.5 320 L 347 320.5 L 341.5 321 L 341.5 320 Z " /><path fill="rgb(253,222,220)" stroke="rgb(253,222,220)" stroke-width="1" opacity="1" d="M 160.5 321 L 167 321.5 L 160.5 322 L 160.5 321 Z " /><path fill="rgb(253,222,220)" stroke="rgb(253,222,220)" stroke-width="1" opacity="1" d="M 332.5 321 L 339 321.5 L 327.5 323 L 327.5 322 L 332.5 321 Z " /><path fill="rgb(253,222,220)" stroke="rgb(253,222,220)" stroke-width="1" opacity="1" d="M 168.5 322 L 172 322.5 L 168.5 323 L 168.5 322 Z " /><path fill="rgb(253,222,220)" stroke="rgb(253,222,220)" stroke-width="1" opacity="1" d="M 229.5 322 L 230.5 324 L 229.5 322 Z " /><path fill="rgb(253,222,220)" stroke="rgb(253,222,220)" stroke-width="1" opacity="1" d="M 173.5 323 L 176 323.5 L 173.5 324 L 173.5 323 Z " /><path fill="rgb(253,222,220)" stroke="rgb(253,222,220)" stroke-width="1" opacity="1" d="M 181.5 325 L 192 328.5 L 190.5 329 L 181.5 326 L 181.5 325 Z " /><path fill="rgb(253,222,220)" stroke="rgb(253,222,220)" stroke-width="1" opacity="1" d="M 233.5 325 L 238 328.5 L 236.5 329 L 233.5 325 Z " /><path fill="rgb(253,222,220)" stroke="rgb(253,222,220)" stroke-width="1" opacity="1" d="M 316.5 325 L 319 325.5 L 316.5 326 L 316.5 325 Z " /><path fill="rgb(253,222,220)" stroke="rgb(253,222,220)" stroke-width="1" opacity="1" d="M 307.5 328 L 309 328.5 L 305.5 330 L 305.5 329 L 307.5 328 Z " /><path fill="rgb(253,222,220)" stroke="rgb(253,222,220)" stroke-width="1" opacity="1" d="M 193.5 329 L 197 330.5 L 195.5 331 L 193.5 329 Z " /><path fill="rgb(253,222,220)" stroke="rgb(253,222,220)" stroke-width="1" opacity="1" d="M 198.5 331 L 201 332.5 L 199.5 333 L 198.5 331 Z " /><path fill="rgb(253,222,220)" stroke="rgb(253,222,220)" stroke-width="1" opacity="1" d="M 298.5 332 L 300 332.5 L 295.5 335 L 296.5 333 L 298.5 332 Z " /><path fill="rgb(253,222,220)" stroke="rgb(253,222,220)" stroke-width="1" opacity="1" d="M 204.5 334 L 212 339.5 L 207.5 340 L 207.5 339 L 210 338.5 L 205.5 336 L 204.5 334 Z " /><path fill="rgb(253,222,220)" stroke="rgb(253,222,220)" stroke-width="1" opacity="1" d="M 293.5 335 L 292.5 337 L 290.5 338 L 291.5 336 L 293.5 335 Z " /><path fill="rgb(253,222,220)" stroke="rgb(253,222,220)" stroke-width="1" opacity="1" d="M 151.5 337 L 196 337.5 L 151.5 338 L 151.5 337 Z " /><path fill="rgb(253,222,220)" stroke="rgb(253,222,220)" stroke-width="1" opacity="1" d="M 304.5 337 L 348 337.5 L 304.5 338 L 304.5 337 Z " /><path fill="rgb(253,222,220)" stroke="rgb(253,222,220)" stroke-width="1" opacity="1" d="M 141.5 338 L 148 338.5 L 141.5 339 L 141.5 338 Z " /><path fill="rgb(253,222,220)" stroke="rgb(253,222,220)" stroke-width="1" opacity="1" d="M 198.5 338 L 205 338.5 L 198.5 339 L 198.5 338 Z " /><path fill="rgb(253,222,220)" stroke="rgb(253,222,220)" stroke-width="1" opacity="1" d="M 288.5 338 L 293 339.5 L 287.5 340 L 288.5 338 Z " /><path fill="rgb(253,222,220)" stroke="rgb(253,222,220)" stroke-width="1" opacity="1" d="M 295.5 338 L 301 338.5 L 295.5 339 L 295.5 338 Z " /><path fill="rgb(253,222,220)" stroke="rgb(253,222,220)" stroke-width="1" opacity="1" d="M 351.5 338 L 358 338.5 L 351.5 339 L 351.5 338 Z " /><path fill="rgb(253,222,220)" stroke="rgb(253,222,220)" stroke-width="1" opacity="1" d="M 134.5 339 L 138 339.5 L 134.5 340 L 134.5 339 Z " /><path fill="rgb(253,222,220)" stroke="rgb(253,222,220)" stroke-width="1" opacity="1" d="M 362.5 339 L 366 339.5 L 362.5 340 L 362.5 339 Z " /><path fill="rgb(253,222,220)" stroke="rgb(253,222,220)" stroke-width="1" opacity="1" d="M 126.5 340 L 132 340.5 L 121.5 342 L 121.5 341 L 126.5 340 Z " /><path fill="rgb(253,222,220)" stroke="rgb(253,222,220)" stroke-width="1" opacity="1" d="M 368.5 340 L 373 340.5 L 368.5 341 L 368.5 340 Z " /><path fill="rgb(253,222,220)" stroke="rgb(253,222,220)" stroke-width="1" opacity="1" d="M 374.5 341 L 379 341.5 L 374.5 342 L 374.5 341 Z " /><path fill="rgb(253,222,220)" stroke="rgb(253,222,220)" stroke-width="1" opacity="1" d="M 115.5 342 L 118 342.5 L 115.5 343 L 115.5 342 Z " /><path fill="rgb(253,222,220)" stroke="rgb(253,222,220)" stroke-width="1" opacity="1" d="M 381.5 342 L 384 342.5 L 381.5 343 L 381.5 342 Z " /><path fill="rgb(253,222,220)" stroke="rgb(253,222,220)" stroke-width="1" opacity="1" d="M 110.5 343 L 114 343.5 L 105.5 345 L 105.5 344 L 110.5 343 Z " /><path fill="rgb(253,222,220)" stroke="rgb(253,222,220)" stroke-width="1" opacity="1" d="M 385.5 343 L 389 343.5 L 385.5 344 L 385.5 343 Z " /><path fill="rgb(253,222,220)" stroke="rgb(253,222,220)" stroke-width="1" opacity="1" d="M 390.5 344 L 399 345.5 L 395.5 346 L 390.5 345 L 390.5 344 Z " /><path fill="rgb(253,222,220)" stroke="rgb(253,222,220)" stroke-width="1" opacity="1" d="M 101.5 345 L 104 345.5 L 101.5 346 L 101.5 345 Z " /><path fill="rgb(253,222,220)" stroke="rgb(253,222,220)" stroke-width="1" opacity="1" d="M 97.5 346 L 100 346.5 L 97.5 347 L 97.5 346 Z " /><path fill="rgb(253,222,220)" stroke="rgb(253,222,220)" stroke-width="1" opacity="1" d="M 405.5 346 L 406 348 L 403 347.5 L 405.5 346 Z " /><path fill="rgb(253,222,220)" stroke="rgb(253,222,220)" stroke-width="1" opacity="1" d="M 163.5 360 L 183 360.5 L 163.5 361 L 163.5 360 Z " /><path fill="rgb(253,222,220)" stroke="rgb(253,222,220)" stroke-width="1" opacity="1" d="M 318.5 360 L 336 360.5 L 318.5 361 L 318.5 360 Z " /><path fill="rgb(253,222,220)" stroke="rgb(253,222,220)" stroke-width="1" opacity="1" d="M 147.5 361 L 160 361.5 L 147.5 362 L 147.5 361 Z " /><path fill="rgb(253,222,220)" stroke="rgb(253,222,220)" stroke-width="1" opacity="1" d="M 188.5 361 L 198 361.5 L 188.5 362 L 188.5 361 Z " /><path fill="rgb(253,222,220)" stroke="rgb(253,222,220)" stroke-width="1" opacity="1" d="M 301.5 361 L 313 361.5 L 301.5 362 L 301.5 361 Z " /><path fill="rgb(253,222,220)" stroke="rgb(253,222,220)" stroke-width="1" opacity="1" d="M 339.5 361 L 352 361.5 L 339.5 362 L 339.5 361 Z " /><path fill="rgb(253,222,220)" stroke="rgb(253,222,220)" stroke-width="1" opacity="1" d="M 139.5 362 L 146 362.5 L 139.5 363 L 139.5 362 Z " /><path fill="rgb(253,222,220)" stroke="rgb(253,222,220)" stroke-width="1" opacity="1" d="M 200.5 362 L 206 362.5 L 200.5 363 L 200.5 362 Z " /><path fill="rgb(253,222,220)" stroke="rgb(253,222,220)" stroke-width="1" opacity="1" d="M 294.5 362 L 300 362.5 L 294.5 363 L 294.5 362 Z " /><path fill="rgb(253,222,220)" stroke="rgb(253,222,220)" stroke-width="1" opacity="1" d="M 353.5 362 L 361 362.5 L 353.5 363 L 353.5 362 Z " /><path fill="rgb(253,222,220)" stroke="rgb(253,222,220)" stroke-width="1" opacity="1" d="M 133.5 363 L 138 363.5 L 133.5 364 L 133.5 363 Z " /><path fill="rgb(253,222,220)" stroke="rgb(253,222,220)" stroke-width="1" opacity="1" d="M 207.5 363 L 210 363.5 L 207.5 364 L 207.5 363 Z " /><path fill="rgb(253,222,220)" stroke="rgb(253,222,220)" stroke-width="1" opacity="1" d="M 289.5 363 L 293 363.5 L 289.5 364 L 289.5 363 Z " /><path fill="rgb(253,222,220)" stroke="rgb(253,222,220)" stroke-width="1" opacity="1" d="M 362.5 363 L 366 363.5 L 362.5 364 L 362.5 363 Z " /><path fill="rgb(253,222,220)" stroke="rgb(253,222,220)" stroke-width="1" opacity="1" d="M 70.5 364 Q 71.1 370.9 76 373.5 L 71 369.5 L 70.5 364 Z " /><path fill="rgb(253,222,220)" stroke="rgb(253,222,220)" stroke-width="1" opacity="1" d="M 125.5 364 L 131 364.5 L 120.5 366 L 120.5 365 L 125.5 364 Z " /><path fill="rgb(253,222,220)" stroke="rgb(253,222,220)" stroke-width="1" opacity="1" d="M 212.5 364 L 221 365.5 L 217.5 366 L 212.5 365 L 212.5 364 Z " /><path fill="rgb(253,222,220)" stroke="rgb(253,222,220)" stroke-width="1" opacity="1" d="M 283.5 364 L 288 364.5 L 283.5 365 L 283.5 364 Z " /><path fill="rgb(253,222,220)" stroke="rgb(253,222,220)" stroke-width="1" opacity="1" d="M 369.5 364 L 379 365.5 L 374.5 366 L 369.5 365 L 369.5 364 Z " /><path fill="rgb(253,222,220)" stroke="rgb(253,222,220)" stroke-width="1" opacity="1" d="M 279.5 365 L 282 365.5 L 279.5 366 L 279.5 365 Z " /><path fill="rgb(253,222,220)" stroke="rgb(253,222,220)" stroke-width="1" opacity="1" d="M 116.5 366 L 119 366.5 L 116.5 367 L 116.5 366 Z " /><path fill="rgb(253,222,220)" stroke="rgb(253,222,220)" stroke-width="1" opacity="1" d="M 112.5 367 L 115 367.5 L 112.5 368 L 112.5 367 Z " /><path fill="rgb(253,222,220)" stroke="rgb(253,222,220)" stroke-width="1" opacity="1" d="M 106.5 368 L 111 368.5 L 102.5 370 L 102.5 369 L 106.5 368 Z " /><path fill="rgb(253,222,220)" stroke="rgb(253,222,220)" stroke-width="1" opacity="1" d="M 228.5 368 L 231 368.5 L 228.5 369 L 228.5 368 Z " /><path fill="rgb(253,222,220)" stroke="rgb(253,222,220)" stroke-width="1" opacity="1" d="M 268.5 368 L 271 368.5 L 263.5 371 L 263.5 370 L 268.5 368 Z " /><path fill="rgb(253,222,220)" stroke="rgb(253,222,220)" stroke-width="1" opacity="1" d="M 389.5 368 L 393 368.5 L 389.5 369 L 389.5 368 Z " /><path fill="rgb(253,222,220)" stroke="rgb(253,222,220)" stroke-width="1" opacity="1" d="M 428.5 368 L 428 369.5 L 425.5 373 L 427 370.5 L 428.5 368 Z " /><path fill="rgb(253,222,220)" stroke="rgb(253,222,220)" stroke-width="1" opacity="1" d="M 394.5 369 L 397 369.5 L 394.5 370 L 394.5 369 Z " /><path fill="rgb(253,222,220)" stroke="rgb(253,222,220)" stroke-width="1" opacity="1" d="M 94.5 371 L 98 371.5 L 91.5 373 L 91.5 372 L 94.5 371 Z " /><path fill="rgb(253,222,220)" stroke="rgb(253,222,220)" stroke-width="1" opacity="1" d="M 237.5 371 L 244 373.5 L 242.5 374 L 237.5 372 L 237.5 371 Z " /><path fill="rgb(253,222,220)" stroke="rgb(253,222,220)" stroke-width="1" opacity="1" d="M 260.5 371 L 262 371.5 L 258.5 373 L 258.5 372 L 260.5 371 Z " /><path fill="rgb(253,222,220)" stroke="rgb(253,222,220)" stroke-width="1" opacity="1" d="M 402.5 371 L 408 372.5 L 405.5 373 L 402.5 372 L 402.5 371 Z " /><path fill="rgb(253,222,220)" stroke="rgb(253,222,220)" stroke-width="1" opacity="1" d="M 423.5 373 L 422.5 375 L 421 374.5 L 423.5 373 Z " /><path fill="rgb(253,222,220)" stroke="rgb(253,222,220)" stroke-width="1" opacity="1" d="M 80.5 375 L 84 375.5 L 80.5 376 L 80.5 375 Z " /><path fill="rgb(253,222,220)" stroke="rgb(253,222,220)" stroke-width="1" opacity="1" d="M 248.5 375 L 252 375.5 L 248.5 376 L 248.5 375 Z " /><path fill="rgb(253,222,220)" stroke="rgb(253,222,220)" stroke-width="1" opacity="1" d="M 416.5 375 L 419 375.5 L 416.5 376 L 416.5 375 Z " /><path fill="rgb(254,242,245)" stroke="rgb(254,242,245)" stroke-width="1" opacity="1" d="M 123.5 85 L 154.5 85 L 155.5 86 L 162.5 86 L 168.5 88 L 179.5 89 Q 183.5 92 190.5 92 Q 218 100.8 237 117 L 238.5 120 L 244 124.5 L 249.5 131 L 252 129.5 L 265.5 115 L 282.5 103 L 305.5 93 L 336.5 86 L 344.5 86 L 345.5 85 L 375.5 85 Q 377 87.5 382.5 86 L 390 91.5 L 392 96.5 L 392 124 L 418.5 124 L 422.5 125 L 428 130.5 L 429 132.5 L 429 367.5 L 424.5 373 Q 421.5 376 414.5 375 L 404.5 371 L 400.5 371 L 396.5 369 L 387.5 368 L 373.5 364 L 366.5 364 L 351.5 361 L 318.5 360 L 317.5 361 L 301.5 361 L 300.5 362 L 283.5 364 L 272.5 368 L 265.5 369 L 252.5 375 L 246.5 375 L 230.5 368 L 205.5 362 L 183.5 361 L 182.5 360 L 163.5 360 L 162.5 361 L 147.5 361 L 132.5 364 L 125.5 364 L 111.5 368 L 102.5 369 L 98.5 371 L 94.5 371 L 85.5 375 L 78.5 375 L 72 369.5 L 70 363.5 L 70 135.5 Q 70.9 128.9 75.5 126 L 80.5 124 L 108 124 L 108 93.5 L 111.5 89 L 116.5 86 Q 122 87.5 123.5 85 Z M 132 108 L 130 110 L 130 295 L 132 296 L 161 297 L 191 303 L 215 313 L 238 329 L 238 155 L 232 146 Q 216 126 191 116 Q 181 115 174 111 L 168 111 L 155 108 L 132 108 Z M 346 108 L 333 111 L 327 111 L 305 118 Q 289 125 277 136 Q 267 144 261 156 L 261 329 L 265 328 Q 272 319 284 314 L 310 303 L 321 301 L 325 299 Q 334 300 339 297 L 369 296 L 369 109 L 369 108 L 346 108 Z M 95 147 L 93 149 L 93 348 L 119 342 L 126 342 L 149 338 L 198 338 L 208 340 L 212 340 L 209 336 L 184 325 L 180 325 L 167 321 L 152 320 L 151 319 L 128 319 L 127 320 Q 116 322 111 318 L 108 313 L 108 149 L 107 147 L 95 147 Z M 392 147 L 392 310 L 390 316 L 384 320 L 374 320 L 373 319 L 350 319 L 349 320 L 328 322 L 308 328 L 289 338 L 288 340 L 301 339 L 302 338 L 351 338 L 352 339 L 362 339 L 375 342 L 381 342 L 406 348 L 406 148 L 406 147 L 392 147 Z " /><path fill="rgb(245,73,39)" stroke="rgb(245,73,39)" stroke-width="1" opacity="0.996078431372549" d="M 73.5 0 L 83 0.5 L 67.5 3 L 52.5 8 L 42.5 13 L 28 24.5 L 28 26 L 26 26 Q 27.1 28.7 24.5 28 L 15 39.5 L 8 52.5 L 3 67.5 L 0.5 84 L 0 73.5 Q 7.1 37.6 31.5 19 L 52.5 6 L 73.5 0 Z " /><path fill="rgb(245,73,39)" stroke="rgb(245,73,39)" stroke-width="1" opacity="0.996078431372549" d="M 416.5 0 L 431.5 1 L 451.5 8 Q 468.5 16.5 480 30.5 Q 491.1 42.9 497 60.5 L 500 73.5 L 500 84.5 L 499 84.5 Q 498.3 65.7 492 52.5 L 487 42.5 L 473.5 26 Q 471.3 26.8 472 24.5 L 451.5 10 L 436.5 4 L 422.5 1 L 416.5 1 L 416.5 0 Z " /><path fill="rgb(245,73,39)" stroke="rgb(245,73,39)" stroke-width="1" opacity="0.996078431372549" d="M 0.5 403 L 6 430.5 L 19 454 Q 21.7 452.9 21 455.5 L 24 460 L 26 460 Q 24.9 462.7 27.5 462 L 29 465 L 48.5 478 Q 53.7 477.8 55.5 481 L 68.5 485 L 82.5 486 L 83.5 487 L 418.5 487 L 441.5 482 Q 458.5 475.3 471 465 L 472.5 462 L 474 462 L 474 460 Q 476.7 461.1 476 458.5 L 479 454 Q 481.7 455.1 481 452.5 Q 489.3 443.3 494 430.5 L 497 420.5 L 499.5 403 L 500 414.5 L 492 439.5 Q 483.4 455.4 470.5 467 L 458.5 476 L 444.5 483 L 424.5 488 L 75.5 488 L 55.5 483 L 41.5 476 L 21 458.5 Q 11 447.5 5 432.5 L 0 414.5 L 0.5 403 Z " /><path fill="rgb(245,73,39)" stroke="rgb(245,73,39)" stroke-width="1" opacity="1" d="M 83.5 0 L 415.5 0 L 442.5 6 L 455.5 12 L 472 24.5 Q 471.3 26.8 473.5 26 L 487 42.5 L 492 52.5 L 497 67.5 L 499 84.5 L 500 85.5 L 500 402.5 L 494 430.5 L 481 454 Q 478.3 452.9 479 455.5 L 476 460 L 474 460 Q 475.1 462.7 472.5 462 L 471 465 Q 458.5 475.3 441.5 482 L 418.5 487 L 83.5 487 L 82.5 486 L 68.5 485 L 55.5 481 Q 53.7 477.8 48.5 478 L 29 465 L 27.5 462 Q 24.9 462.7 26 460 L 24 460 L 24 458.5 L 21 454 Q 18.3 455.1 19 452.5 Q 10.7 443.3 6 430.5 L 0 402.5 L 0 84.5 L 3 67.5 L 8 52.5 L 15 39.5 L 24.5 28 L 26 28 L 26 26 Q 28.7 27.1 28 24.5 L 42.5 13 L 52.5 8 L 63.5 4 L 83.5 0 Z M 132 84 L 131 85 L 120 85 L 112 88 L 107 95 L 107 124 L 79 124 L 75 126 L 70 133 L 70 368 L 71 370 Q 74 374 81 376 L 120 366 L 138 364 L 139 363 L 146 363 L 147 362 L 160 362 L 161 361 L 188 361 L 189 362 L 207 363 L 232 369 L 249 376 L 252 376 L 263 371 L 283 365 L 300 363 L 301 362 L 313 362 L 314 361 L 339 361 L 340 362 L 353 362 L 354 363 L 369 364 L 402 371 L 417 376 Q 423 376 426 373 L 428 371 L 430 365 L 430 135 L 428 130 L 422 124 L 394 124 L 392 123 L 392 94 L 391 92 L 385 86 L 369 85 L 368 84 L 341 85 L 314 90 Q 284 98 265 115 L 252 129 L 250 130 L 245 125 Q 227 104 199 94 L 174 87 L 161 86 L 160 85 L 148 85 L 147 84 L 132 84 Z " /><path fill="rgb(245,73,39)" stroke="rgb(245,73,39)" stroke-width="1" opacity="1" d="M 131 109 Q 200.7 107 231 145.5 L 238 155.5 L 238 328 L 219.5 315 L 189.5 302 L 165.5 297 L 136.5 295 L 132.5 296 L 131 294.5 L 131 109 Z " /><path fill="rgb(245,73,39)" stroke="rgb(245,73,39)" stroke-width="1" opacity="1" d="M 345.5 109 L 367.5 109 L 368 109.5 L 368 296 L 358.5 295 L 357.5 296 L 342.5 296 L 341.5 297 L 327.5 298 L 301.5 305 Q 278.6 313.1 262.5 328 L 262 155.5 Q 268.6 143.6 278.5 135 Q 290.4 124.4 306.5 118 L 321.5 113 L 337.5 110 L 344.5 110 L 345.5 109 Z " /><path fill="rgb(245,73,39)" stroke="rgb(245,73,39)" stroke-width="1" opacity="1" d="M 94 148 L 106.5 148 L 107 148.5 L 107 311.5 L 113.5 320 L 124.5 321 L 125.5 320 L 152.5 320 L 180.5 325 L 197.5 331 L 210 338.5 L 205.5 339 L 195.5 337 L 151.5 337 L 150.5 338 L 126.5 340 L 94 347 L 94 148 Z " /><path fill="rgb(245,73,39)" stroke="rgb(245,73,39)" stroke-width="1" opacity="1" d="M 393.5 148 L 404.5 148 L 406 149.5 L 406 345.5 L 404.5 347 L 394.5 344 L 389.5 344 L 365.5 339 L 358.5 339 L 357.5 338 L 348.5 338 L 347.5 337 L 304.5 337 L 303.5 338 L 289.5 339 L 289.5 338 L 304.5 330 L 326.5 323 L 346.5 321 L 347.5 320 L 374.5 320 L 375.5 321 L 383.5 321 L 390 316.5 L 392 313.5 L 392 149.5 L 393.5 148 Z " /></svg>